PathFileType	4	(X/Y/Z)	D:\TRACE\v60_Jaco2_6-2-23\JustBodyDRS_Motion1_5-platform.trc
DataRate	CameraRate	NumFrames	NumMarkers	Units	OrigDataRate	OrigDataStartFrame	OrigNumFrames
100.00	100.00	      62	5	mm	100.00	838	      6702
Frame#	Time	Left_Front			Right_Front			Left_Aft			Right_Aft			Post			
		X1	Y1	Z1	X2	Y2	Z2	X3	Y3	Z3	X4	Y4	Z4	X5	Y5	Z5	

838	8.370	-815.07990	28.26940	-633.75092	754.92255	29.12364	-639.21942	-723.22540	-5.61639	500.81268	718.78827	-7.12626	510.32983	-28.35355	1336.08167	-920.34961	
839	8.380	-814.38806	27.76829	-633.86005	755.96948	28.81153	-639.31049	-722.21204	-5.53427	500.59103	719.74420	-6.70982	510.36832	-27.63767	1335.45386	-920.11194	
840	8.390	-813.45502	27.33622	-634.11005	756.54144	28.43504	-639.37006	-721.41656	-5.12027	500.43414	720.65057	-6.63226	509.73642	-26.87494	1334.80225	-920.27063	
841	8.400	-812.54340	27.09999	-634.22644	757.45074	27.81664	-639.53027	-720.70251	-5.06696	500.45242	721.42871	-6.53456	510.00998	-25.74557	1334.29321	-920.75043	
842	8.410	-811.50055	26.86787	-634.37048	758.52057	27.47425	-639.68933	-719.48944	-4.81002	500.58737	722.42450	-6.23418	510.08057	-25.09573	1333.72290	-920.75989	
843	8.420	-810.64056	26.58792	-634.37903	759.26099	27.27587	-639.76007	-718.64453	-4.61241	500.43927	723.42358	-5.75464	510.26199	-24.29440	1333.27344	-921.54462	
844	8.430	-809.52356	26.15572	-634.76422	760.28387	26.77745	-639.76361	-717.73383	-4.12252	500.35547	724.60638	-5.55477	509.37497	-23.19936	1332.81433	-922.74927	
845	8.440	-808.76758	25.85156	-634.72321	761.21368	26.42076	-640.00830	-716.79962	-4.04467	500.04263	725.17242	-5.52798	509.72891	-22.47009	1332.45081	-924.26233	
846	8.450	-807.83911	25.43981	-634.76727	762.13043	26.10324	-640.15680	-715.78387	-3.72040	500.07587	726.11481	-5.18794	509.47278	-21.52946	1331.70996	-925.84344	
847	8.460	-806.85266	25.00738	-635.08331	763.19275	25.67694	-640.20795	-715.10504	-3.44475	499.94897	727.46832	-4.62893	509.62653	-20.03687	1331.07019	-927.40948	
848	8.470	-805.88245	24.65290	-635.35132	763.86914	25.34551	-640.40491	-714.02173	-3.33870	499.80334	728.03363	-4.54708	509.56238	-19.59204	1330.69421	-929.00507	
849	8.480	-805.13727	24.39459	-635.11798	764.96301	24.86975	-640.29980	-713.07654	-2.85742	499.80978	728.90948	-4.20371	509.47800	-18.16442	1330.27527	-930.08484	
850	8.490	-804.07062	23.91902	-635.05927	765.72876	24.66489	-640.54523	-712.27698	-2.64316	499.75284	730.06702	-3.85470	509.24957	-17.63362	1329.82556	-930.95892	
851	8.500	-802.81110	23.32443	-635.18793	766.87543	24.32228	-640.81451	-710.93634	-2.37986	499.59338	730.84497	-3.56104	509.19000	-16.86890	1328.94556	-932.09918	
852	8.510	-802.00903	22.90128	-635.67200	767.85980	23.81072	-640.73431	-710.15887	-2.27933	499.42703	731.89996	-3.48171	509.14609	-15.77460	1328.29993	-932.21210	
853	8.520	-801.23273	22.62344	-635.51929	768.62567	23.29123	-640.90601	-709.18799	-2.01559	499.37903	732.82129	-3.22086	508.95456	-14.47934	1327.77246	-932.42334	
854	8.530	-799.94495	22.15586	-635.75159	769.66180	22.84875	-641.06732	-708.27197	-1.58634	499.21085	733.82739	-2.72678	508.86044	-13.91725	1327.39172	-932.55768	
855	8.540	-799.21985	21.90537	-635.76373	770.68402	22.71622	-641.03491	-707.46338	-1.24066	499.14508	735.10107	-2.41925	508.66824	-13.17720	1326.86707	-932.52393	
856	8.550	-798.33026	21.52325	-636.08099	771.69647	22.50762	-641.24164	-706.49280	-0.98351	499.09863	735.86115	-2.42537	508.53940	-12.21268	1326.45020	-933.38574	
857	8.560	-797.53601	21.28424	-635.94543	772.71185	22.04621	-641.37628	-705.31958	-0.82646	499.05225	736.68134	-2.26204	508.51263	-11.37504	1325.68066	-933.99426	
858	8.570	-796.12189	20.54962	-636.11877	773.61621	21.79576	-641.36029	-704.32404	-0.69591	498.94733	737.40973	-1.81671	508.41226	-10.08684	1325.13879	-934.94275	
859	8.580	-795.27551	20.43665	-636.25543	774.70038	21.30359	-641.52765	-703.31232	-0.56357	498.94897	738.63818	-1.40891	507.91364	-8.98158	1324.50793	-935.99524	
860	8.590	-794.47040	19.93354	-636.42841	775.52057	20.93201	-641.64294	-702.97784	0.50056	497.95505	739.84888	-0.91784	507.94196	-8.36039	1324.16492	-937.56586	
861	8.600	-793.31750	19.58140	-636.30280	776.54669	20.54913	-641.59802	-701.96887	0.73637	497.95627	740.44720	-0.87504	508.08701	-6.84998	1323.50488	-938.82898	
862	8.610	-792.27032	19.12510	-636.22241	777.53473	20.20720	-641.78833	-700.85712	1.00326	497.98618	741.70227	-0.50960	508.08014	-6.07766	1322.94348	-940.31854	
863	8.620	-791.59351	18.73493	-636.48224	778.37152	20.04556	-642.04950	-700.11493	1.40076	497.43695	742.80225	-0.11589	508.30231	-5.10330	1322.31165	-941.51892	
864	8.630	-790.63013	18.40914	-637.10693	779.61414	19.72576	-641.84540	-699.07562	1.61890	497.51321	743.35944	0.12152	507.51953	-3.93080	1321.73499	-942.58228	
865	8.640	-789.49487	17.89726	-636.90613	780.32263	19.03353	-642.18536	-698.08136	1.86316	497.54529	744.78625	0.38654	507.88071	-3.43422	1321.32959	-943.33240	
866	8.650	-788.53162	17.28115	-636.95844	781.60126	18.42653	-642.07861	-697.09119	2.15062	497.57129	745.75897	0.66725	507.89050	-2.13162	1320.61414	-943.98010	
867	8.660	-787.78003	17.02772	-637.02600	782.29211	18.21311	-642.28430	-695.55994	1.65096	498.15408	746.52423	0.85771	507.86472	-1.14101	1320.26526	-944.43079	
868	8.670	-786.69244	16.57385	-637.39178	783.36707	18.22537	-642.42908	-694.53546	2.07112	498.15738	747.55005	1.03910	507.53369	-0.45130	1319.61316	-944.52026	
869	8.680	-785.74255	16.32339	-637.15680	784.24518	17.72811	-642.56580	-693.64044	2.21299	497.94986	748.16730	1.33996	507.41299	0.73331	1319.07593	-945.22357	
870	8.690	-784.85254	16.25348	-637.45856	785.11572	17.38744	-642.54749	-692.65460	2.43452	497.75699	749.49469	1.84420	507.26282	1.43327	1318.56433	-945.50726	
871	8.700	-783.81799	15.62474	-637.59149	786.01758	16.95470	-642.78015	-691.89136	2.87638	497.63040	750.49567	2.03026	507.22156	2.04941	1318.07642	-946.16046	
872	8.710	-782.85645	15.00764	-637.72131	787.08435	16.39422	-642.63672	-690.98218	3.00509	497.49976	750.94238	2.16722	507.12277	3.04509	1317.33899	-946.81171	
873	8.720	-782.02588	14.63002	-637.46649	788.03418	16.11329	-642.79193	-689.83801	3.23261	497.51065	751.84937	2.33275	507.08414	4.24579	1316.91028	-948.32147	
874	8.730	-781.04321	14.23787	-637.57385	788.94519	15.75223	-643.03888	-689.05157	3.46232	497.44464	752.95715	2.51575	506.90689	5.18681	1316.30762	-949.47284	
875	8.740	-779.96271	13.88196	-637.84662	789.98413	15.34224	-643.03918	-687.94745	3.60339	497.54263	754.20398	3.05063	507.07318	6.15112	1315.69849	-950.44067	
876	8.750	-779.12921	13.52343	-638.13202	790.92493	15.02529	-643.02527	-686.73462	3.73592	497.45581	754.83801	3.27075	507.16681	7.21751	1315.00403	-951.71704	
877	8.760	-778.40045	13.16837	-637.95972	791.82202	14.53752	-643.24835	-686.27612	4.33058	496.93976	755.32855	3.39948	507.13831	8.15933	1314.58630	-952.80817	
878	8.770	-777.20374	12.80131	-638.11670	792.62933	14.34380	-643.31958	-685.39124	4.64385	496.87796	756.54828	3.62147	506.85312	9.03371	1314.23877	-953.59247	
879	8.780	-776.44421	12.32224	-638.28497	793.59778	13.95881	-643.44208	-684.35223	4.83733	496.79932	757.44385	3.87471	506.70172	9.84222	1313.54456	-954.53406	
880	8.790	-775.69952	12.07794	-638.49292	794.49475	13.50159	-643.62518	-683.60217	5.09578	496.70190	758.55225	4.21912	506.56253	10.62505	1312.84338	-955.43097	
881	8.800	-774.72150	11.95716	-638.58160	795.28021	13.25150	-643.64777	-682.45728	5.33872	496.65506	759.59723	4.62431	506.47360	11.58238	1312.33105	-955.84302	
882	8.810	-773.48993	11.54465	-638.70111	796.31030	12.93299	-643.76862	-681.60565	5.40391	496.58588	760.11365	4.86434	506.47833	12.39103	1312.07495	-956.34814	
883	8.820	-772.91650	11.05476	-638.70642	797.19421	12.58672	-643.78644	-680.65955	5.52853	496.56250	760.62073	5.04310	506.42148	13.15543	1311.42480	-956.97522	
884	8.830	-772.21002	10.62942	-638.90710	797.87238	12.06428	-644.02765	-679.80804	5.77647	496.45432	762.22534	5.51545	506.38370	13.97718	1310.74194	-957.28711	
885	8.840	-771.13763	10.25178	-638.89606	798.79974	11.57333	-643.98065	-678.84009	6.01905	496.43100	762.89874	5.82719	506.38226	15.19352	1310.15601	-957.96460	
886	8.850	-770.17206	9.70733	-639.05151	799.71399	11.36529	-644.18811	-678.05334	6.33306	496.35455	763.66913	5.96266	506.72266	15.63657	1309.74573	-958.72888	
887	8.860	-769.46417	9.57387	-639.03149	800.35315	11.01506	-644.42035	-677.21790	6.59354	496.27997	765.30444	6.63619	507.19855	16.39561	1309.23389	-959.78003	
888	8.870	-768.73645	9.07920	-639.16614	801.27441	10.55858	-644.54431	-676.13379	6.64129	496.30417	765.62994	6.64204	506.10852	17.97654	1308.53711	-960.92035	
889	8.880	-767.79492	8.51566	-639.32941	802.12537	10.23390	-644.69263	-675.33221	6.75359	496.07553	766.16986	6.80918	505.94122	17.97628	1308.13708	-961.85480	
890	8.890	-767.03662	8.23006	-639.24518	802.81970	9.76285	-644.71094	-674.62689	6.88678	496.02924	767.24268	7.04372	505.58585	19.05484	1307.64355	-963.04285	
891	8.900	-766.29291	7.86896	-639.33563	803.49200	9.38962	-644.80841	-673.91620	7.15000	495.97205	767.99493	7.49841	505.42203	20.15146	1307.03528	-963.86865	
892	8.910	-765.49683	7.87996	-639.45422	804.28931	9.08248	-644.94641	-672.92017	7.46830	495.99551	768.63177	7.77528	505.43735	20.75594	1306.40137	-964.80499	
893	8.920	-764.60986	7.18246	-639.91296	805.16357	8.79078	-645.19373	-672.33569	7.73949	495.92801	769.55127	8.11050	505.31168	21.29273	1305.86584	-966.01099	
894	8.930	-763.87079	6.96678	-639.78540	805.99957	8.48934	-645.05341	-672.00983	8.89825	495.44583	770.10364	8.30449	505.23749	21.77678	1305.35400	-966.43262	
895	8.940	-763.09766	6.45239	-639.63409	806.61346	8.01699	-645.15851	-670.78723	8.38236	495.62592	770.78717	8.38295	504.96216	23.18669	1304.80469	-967.02863	
896	8.950	-762.47980	5.99040	-639.65625	807.38794	7.58424	-645.09125	-670.08405	8.47861	495.63110	771.59711	8.68581	504.96573	23.67307	1304.32556	-967.34235	
897	8.960	-761.76794	5.83357	-639.94196	808.02441	7.38120	-645.31702	-669.92090	9.47081	495.12830	772.49347	9.03737	504.74121	24.13437	1303.95593	-967.81958	
898	8.970	-760.89948	5.47765	-640.13269	808.77325	6.99889	-645.43396	-669.07684	9.82246	495.04880	773.20306	9.45260	504.55936	24.68530	1303.33435	-968.66754	
899	8.980	-760.30029	5.23946	-640.15601	809.48010	6.68993	-645.53894	-668.48126	10.11904	495.07034	773.71722	9.67021	504.47256	25.39685	1302.77600	-969.25372	
